<svg width="75" height="48" viewBox="0 0 75 48" fill="none" xmlns="http://www.w3.org/2000/svg">
<rect width="74.359" height="47.4632" fill="#3C3C3C"/>
<!-- First accordion item (expanded with content) -->
<rect x="8" y="5" width="58" height="17" fill="#656565"/>
<g transform="rotate(45 15 10)">
<path d="M14 10H16M15 9V11" stroke="#9A9A9A" stroke-width="0.5"/>
</g>
<rect x="20" y="9.25" width="25" height="1.5" fill="#ACACAC"/>
<!-- Expanded content text -->
<rect x="12" y="13.5" width="50" height="1" fill="#ACACAC"/>
<rect x="12" y="16" width="45" height="1" fill="#ACACAC"/>
<rect x="12" y="18.5" width="38" height="1" fill="#ACACAC"/>
<!-- Second accordion item (collapsed) -->
<rect x="8" y="25" width="58" height="7" fill="#656565"/>
<path d="M14 28.5H16M15 27.5V29.5" stroke="#9A9A9A" stroke-width="0.5"/>
<rect x="20" y="27.25" width="28" height="1.5" fill="#ACACAC"/>
<!-- Third accordion item (collapsed) -->
<rect x="8" y="35" width="58" height="7" fill="#656565"/>
<path d="M14 38.5H16M15 37.5V39.5" stroke="#9A9A9A" stroke-width="0.5"/>
<rect x="20" y="37.25" width="22" height="1.5" fill="#ACACAC"/>
</svg>
