<svg width="70" height="46" viewBox="0 0 70 46" fill="none" xmlns="http://www.w3.org/2000/svg">
<g clip-path="url(#clip0_archive)">
<rect width="69.3093" height="45.6626" fill="#3C3C3C"/>
<!-- Filter Pills -->
<rect x="7.76758" y="3" width="15" height="6" rx="3" fill="#656565"/>
<rect x="24.76758" y="3" width="15" height="6" rx="3" fill="#656565"/>
<rect x="41.76758" y="3" width="15" height="6" rx="3" fill="#656565"/>
<!-- Top Left Card -->
<g clip-path="url(#clip1_archive)"> <rect width="25.5226" height="16.6452" transform="translate(7.76758 11.91794)" fill="#656565"/> <!-- Content lines representing text/posts --> <rect x="11.76758" y="14.91794" width="17.5226" height="1.2" fill="#ACACAC"/> <rect x="11.76758" y="17.51794" width="17.5226" height="1.2" fill="#ACACAC"/> <rect x="11.76758" y="20.11794" width="12" height="1.2" fill="#ACACAC"/> </g> <rect x="7.76758" y="27.4516" width="25.5226" height="9.2065" fill="#656565"/> <path d="M11.0967 32.2211H19.824" stroke="#ACACAC" stroke-width="0.969704"/> <path d="M11.0967 29.891H28.5514" stroke="#ACACAC" stroke-width="0.969704"/> <!-- Bottom Left Card (clipped) --> <g clip-path="url(#clip2_archive)"> <rect width="25.5226" height="16.5432" transform="translate(7.76758 39.945)" fill="#656565"/> <rect x="11.76758" y="42.945" width="17.5226" height="1.2" fill="#ACACAC"/> </g> <!-- Top Right Card --> <g clip-path="url(#clip3_archive)"> <rect width="25.5226" height="16.6452" transform="translate(36.6191 11.91794)" fill="#656565"/> <!-- Content lines representing text/posts --> <rect x="40.6191" y="14.91794" width="17.5226" height="1.2" fill="#ACACAC"/> <rect x="40.6191" y="17.51794" width="17.5226" height="1.2" fill="#ACACAC"/> <rect x="40.6191" y="20.11794" width="12" height="1.2" fill="#ACACAC"/> </g> <rect x="36.6191" y="27.4516" width="25.5226" height="9.2065" fill="#656565"/> <path d="M41.1309 32.2211H49.8582" stroke="#ACACAC" stroke-width="0.969704"/> <path d="M41.1309 29.891H58.5855" stroke="#ACACAC" stroke-width="0.969704"/> <!-- Bottom Right Card (clipped) --> <g clip-path="url(#clip4_archive)"> <rect width="25.5226" height="16.6452" transform="translate(36.6191 39.945)" fill="#656565"/> <rect x="40.6191" y="42.945" width="17.5226" height="1.2" fill="#ACACAC"/> </g> </g> <defs> <clipPath id="clip0_archive"> <rect width="69.3093" height="45.6626" fill="white"/> </clipPath> <clipPath id="clip1_archive"> <rect width="25.5226" height="16.6452" fill="white" transform="translate(7.76758 11.91794)"/> </clipPath> <clipPath id="clip2_archive"> <rect width="25.5226" height="16.5432" fill="white" transform="translate(7.76758 39.945)"/> </clipPath> <clipPath id="clip3_archive"> <rect width="25.5226" height="16.6452" fill="white" transform="translate(36.6191 11.91794)"/> </clipPath> <clipPath id="clip4_archive"> <rect width="25.5226" height="16.6452" fill="white" transform="translate(36.6191 39.945)"/> </clipPath> </defs> </svg>  