<svg width="75" height="49" viewBox="0 0 75 49" fill="none" xmlns="http://www.w3.org/2000/svg">
<rect width="74.359" height="48.8645" fill="#3C3C3C"/>
<path d="M28.8557 14.3785H31.5004L37.3429 30.9682L38.8335 31.2086V32.3867H32.4862V31.2086L34.4818 30.9682L33.3517 27.4098H26.3312L25.2012 30.9682L27.2689 31.2086V32.3867H21.5707V31.2086L23.0614 30.9682L28.8557 14.3785ZM30.3704 18.2254L29.7693 16.1096L29.1923 18.2735L26.764 25.9913H32.8949L30.3704 18.2254ZM39.6121 28.7803C39.6121 27.2736 40.3655 26.1676 41.8721 25.4623C43.3788 24.7411 45.2862 24.3564 47.5944 24.3083V23.6351C47.5944 22.8817 47.5142 22.2887 47.3539 21.8559C47.1937 21.4231 46.9132 21.1106 46.5124 20.9182C46.1277 20.7099 45.5748 20.6057 44.8535 20.6057C44.036 20.6057 43.2987 20.7259 42.6415 20.9663C42.0004 21.1907 41.3592 21.4712 40.7181 21.8078L40.117 20.5576C40.3254 20.3813 40.7101 20.1489 41.2711 19.8603C41.8321 19.5718 42.4812 19.3154 43.2186 19.091C43.9559 18.8666 44.6932 18.7544 45.4305 18.7544C46.5685 18.7544 47.4661 18.9147 48.1233 19.2352C48.7965 19.5398 49.2774 20.0367 49.5659 20.7259C49.8544 21.4151 49.9987 22.3368 49.9987 23.4908V31.2086H51.4172V32.2665C51.0966 32.3466 50.6879 32.4268 50.191 32.5069C49.7101 32.5871 49.2854 32.6271 48.9167 32.6271C48.4679 32.6271 48.1634 32.555 48.0031 32.4108C47.8428 32.2825 47.7627 31.986 47.7627 31.5212V30.7278C47.2818 31.2086 46.6887 31.6494 45.9835 32.0501C45.2943 32.4508 44.5089 32.6512 43.6273 32.6512C42.4732 32.6512 41.5115 32.3226 40.7421 31.6654C39.9888 30.9922 39.6121 30.0305 39.6121 28.7803ZM44.6611 31.0163C45.0779 31.0163 45.5587 30.888 46.1037 30.6316C46.6487 30.3751 47.1456 30.0706 47.5944 29.718V25.5826C45.8472 25.5826 44.5249 25.855 43.6273 26.4C42.7457 26.929 42.3049 27.6262 42.3049 28.4918C42.3049 29.3573 42.5133 29.9985 42.93 30.4152C43.3628 30.8159 43.9398 31.0163 44.6611 31.0163Z" fill="#C1C1C1"/>
</svg>
