<svg width="74" height="49" viewBox="0 0 74 49" fill="none" xmlns="http://www.w3.org/2000/svg">
<g clip-path="url(#clip0_413_1469)">
<rect width="73.6782" height="48.5409" fill="#3C3C3C"/>
<path d="M31.5462 17.9786V24.9616H22.4876V17.3707C22.4876 12.1294 25.8824 9.6023 31.5462 9.6023V13.4429C28.8582 13.4881 27.1915 14.1174 27.1915 17.2803V17.9786H31.5462ZM19.1277 17.7322V24.9616H10.248V17.3707C10.248 12.1294 13.9919 9.59904 19.6557 9.59904V13.4397C16.9678 13.4849 14.9519 14.1174 14.9519 17.2803V17.7322H19.1277Z" fill="#C1C1C1"/>
<path d="M45.4815 14.3169H49.0873L57.0528 36.935L59.0851 37.2628V38.869H50.4312V37.2628L53.152 36.935L51.6113 32.0836H42.0396L40.4989 36.935L43.318 37.2628V38.869H35.5492V37.2628L37.5815 36.935L45.4815 14.3169ZM47.5466 19.5617L46.7271 16.6771L45.9404 19.6273L42.6296 30.1496H50.9885L47.5466 19.5617ZM60.1466 33.9521C60.1466 31.8979 61.1737 30.39 63.2279 29.4284C65.2821 28.445 67.8827 27.9206 71.0295 27.855V26.9372C71.0295 25.9101 70.9203 25.1015 70.7017 24.5115C70.4832 23.9214 70.1008 23.4953 69.5544 23.233C69.03 22.949 68.276 22.8069 67.2926 22.8069C66.1781 22.8069 65.1729 22.9708 64.2769 23.2986C63.4028 23.6046 62.5286 23.987 61.6545 24.4459L60.835 22.7413C61.1191 22.501 61.6436 22.1841 62.4084 21.7907C63.1733 21.3974 64.0584 21.0477 65.0636 20.7418C66.0689 20.4358 67.0741 20.2829 68.0794 20.2829C69.6309 20.2829 70.8547 20.5014 71.7507 20.9385C72.6685 21.3537 73.3241 22.0311 73.7175 22.9708C74.1108 23.9105 74.3075 25.1671 74.3075 26.7405V37.2628H76.2415V38.7051C75.8045 38.8144 75.2472 38.9237 74.5698 39.0329C73.9142 39.1422 73.3351 39.1968 72.8324 39.1968C72.2205 39.1968 71.8053 39.0985 71.5868 38.9018C71.3683 38.727 71.259 38.3227 71.259 37.689V36.6072C70.6034 37.2628 69.7948 37.8638 68.8333 38.4101C67.8936 38.9565 66.8228 39.2296 65.6209 39.2296C64.0474 39.2296 62.7362 38.7816 61.6873 37.8857C60.6602 36.9678 60.1466 35.6566 60.1466 33.9521ZM67.0304 37.0006C67.5986 37.0006 68.2542 36.8258 68.9972 36.4761C69.7402 36.1265 70.4176 35.7113 71.0295 35.2305V29.5923C68.6475 29.5923 66.8446 29.9638 65.6209 30.7069C64.4189 31.428 63.818 32.3786 63.818 33.5587C63.818 34.7388 64.1021 35.6129 64.6702 36.1811C65.2603 36.7274 66.047 37.0006 67.0304 37.0006Z" fill="#C1C1C1"/>
</g>
<defs>
<clipPath id="clip0_413_1469">
<rect width="73.6782" height="48.5409" fill="white"/>
</clipPath>
</defs>
</svg>
