<svg width="112" height="20" viewBox="0 0 112 20" fill="none" xmlns="http://www.w3.org/2000/svg">
<g id="Asset 20 1" clip-path="url(#clip0_2184_2342)">
<g id="Layer 1">
<path id="Vector" d="M27.5923 20C26.1485 20 24.8077 19.75 23.5684 19.25C22.3292 18.75 21.2557 18.0458 20.3466 17.1389C19.4376 16.2319 18.7331 15.1708 18.2344 13.9583C17.7358 12.7458 17.4858 11.4264 17.4858 10C17.4858 8.57361 17.7358 7.22639 18.2344 6.01389C18.7331 4.80139 19.4376 3.74583 20.3466 2.84722C21.2557 1.94861 22.3251 1.25 23.555 0.75C24.7849 0.25 26.1311 0 27.5923 0C29.0534 0 30.3729 0.245833 31.6028 0.736111C32.8327 1.22778 33.8981 1.92222 34.7978 2.81944C35.6975 3.71806 36.398 4.77778 36.8966 6C37.3953 7.22222 37.6453 8.55556 37.6453 10C37.6453 11.4444 37.3953 12.7736 36.8966 13.9861C36.398 15.1986 35.6975 16.2597 34.7978 17.1667C33.8981 18.075 32.8327 18.7736 31.6028 19.2639C30.3729 19.7542 29.0361 20 27.5923 20ZM27.5923 16.8333C28.5374 16.8333 29.4064 16.6667 30.1991 16.3333C30.9918 16 31.683 15.5278 32.2712 14.9167C32.8594 14.3056 33.3179 13.5833 33.6481 12.75C33.9783 11.9167 34.1428 11 34.1428 10C34.1428 9 33.9823 8.08333 33.6615 7.25C33.3407 6.41667 32.8821 5.69444 32.2846 5.08333C31.687 4.47222 30.9918 4 30.1991 3.66667C29.4064 3.33333 28.5374 3.16667 27.5923 3.16667C26.6471 3.16667 25.7702 3.33333 24.9587 3.66667C24.1473 4 23.4481 4.47639 22.8599 5.09722C22.2717 5.71806 21.8078 6.44028 21.4696 7.26389C21.1314 8.08889 20.9616 9 20.9616 10C20.9616 11 21.1314 11.8889 21.4696 12.7222C21.8078 13.5556 22.2717 14.2819 22.8599 14.9028C23.4481 15.5236 24.1473 16 24.9587 16.3333C25.7702 16.6667 26.6471 16.8333 27.5923 16.8333Z" fill="#1F2344"/>
<path id="Vector_2" d="M41.3349 19.7223V0.277832H44.8107V16.6667H54.5963V19.7223H41.3349Z" fill="#1F2344"/>
<path id="Vector_3" d="M57.3502 19.7223V0.277832H60.826V16.6667H70.6116V19.7223H57.3502Z" fill="#1F2344"/>
<path id="Vector_4" d="M72.7238 19.7223L81.1459 0.277832H84.5682L93.017 19.7223H89.354L82.1351 2.1945H83.5254L76.2798 19.7223H72.7238ZM76.6006 15.2223L77.5632 12.3889H87.6429L88.5787 15.2223H76.6006Z" fill="#1F2344"/>
<path id="Vector_5" d="M95.3965 19.7223V0.277832H104.193C106.421 0.277832 108.123 0.736165 109.3 1.65283C110.476 2.5695 111.064 3.79589 111.064 5.33339C111.064 6.37089 110.833 7.25422 110.369 7.98617C109.905 8.71811 109.286 9.282 108.511 9.68061C107.736 10.0792 106.893 10.2778 105.984 10.2778L106.466 9.27783C107.518 9.27783 108.461 9.47783 109.3 9.87505C110.138 10.2737 110.797 10.8528 111.278 11.6112C111.759 12.3709 112 13.3153 112 14.4445C112 16.1112 111.389 17.407 110.169 18.3334C108.948 19.2598 107.134 19.7223 104.728 19.7223H95.3965ZM98.8723 16.8889H104.514C105.797 16.8889 106.786 16.6667 107.482 16.2223C108.177 15.7778 108.524 15.0653 108.524 14.0834C108.524 13.1014 108.177 12.4126 107.482 11.9584C106.786 11.5042 105.797 11.2778 104.514 11.2778H98.6049V8.47228H103.792C104.986 8.47228 105.913 8.25005 106.572 7.80561C107.232 7.36117 107.562 6.6945 107.562 5.80561C107.562 4.91672 107.232 4.22228 106.572 3.77783C105.913 3.33339 104.986 3.11117 103.792 3.11117H98.8723V16.8889Z" fill="#1F2344"/>
<g id="Group">
<path id="Vector_6" d="M10.8457 11.6431H6.49033L13.0475 19.7222H17.1382L10.8457 11.6431Z" fill="#1F2344"/>
<path id="Vector_7" d="M3.47577 0.277832H0V8.86533H3.47577V0.277832Z" fill="#1F2344"/>
<path id="Vector_8" d="M8.8485 8.86533L16.6302 0.277832H12.6999L4.75912 8.86533H8.8485Z" fill="#1F2344"/>
<path id="Vector_9" d="M6.38873 11.6431H0V19.7222H3.47577V14.7153L6.38873 11.6431Z" fill="#1F2344"/>
</g>
</g>
</g>
<defs>
<clipPath id="clip0_2184_2342">
<rect width="112" height="20" fill="white"/>
</clipPath>
</defs>
</svg>
