<svg width="150" height="26" viewBox="0 0 150 26" fill="none" xmlns="http://www.w3.org/2000/svg">
<g id="Kollab logoer-02 1" clip-path="url(#clip0_2184_2129)">
<path id="Vector" d="M36.9537 25.7576C35.0214 25.7576 33.2241 25.4358 31.5653 24.7923C29.9065 24.1488 28.4694 23.2424 27.2504 22.073C26.0314 20.9036 25.0895 19.5405 24.4211 17.9767C23.7527 16.4163 23.4168 14.7142 23.4168 12.8805C23.4168 11.0469 23.7493 9.31009 24.4211 7.7463C25.0895 6.18597 26.0314 4.8263 27.2504 3.6673C28.4694 2.51175 29.8996 1.60877 31.548 0.96526C33.1964 0.321753 34.9971 0 36.9537 0C38.9103 0 40.6764 0.314834 42.3248 0.947962C43.9732 1.58109 45.3965 2.4737 46.6051 3.6327C47.8102 4.78825 48.7487 6.15483 49.4171 7.729C50.0854 9.30317 50.4213 11.0192 50.4213 12.8805C50.4213 14.7418 50.0854 16.4509 49.4171 18.0147C48.7487 19.5785 47.8102 20.9417 46.6051 22.111C45.4 23.2804 43.9732 24.1799 42.3248 24.8131C40.6764 25.4462 38.8861 25.761 36.9537 25.761V25.7576ZM36.9537 21.6786C38.2177 21.6786 39.3813 21.4641 40.4444 21.0351C41.5076 20.6061 42.4322 19.9972 43.2183 19.2118C44.0044 18.423 44.6208 17.4958 45.0641 16.4198C45.5039 15.3473 45.7255 14.1675 45.7255 12.8771C45.7255 11.5866 45.5108 10.4068 45.0814 9.33431C44.652 8.2618 44.0356 7.33114 43.2356 6.54232C42.4357 5.75351 41.5041 5.14806 40.441 4.71905C39.3778 4.29005 38.2143 4.07554 36.9503 4.07554C35.6863 4.07554 34.5088 4.29005 33.4249 4.71905C32.3375 5.14806 31.4025 5.76388 30.613 6.55962C29.8269 7.35881 29.2035 8.28948 28.7499 9.35161C28.2962 10.4137 28.0711 11.5866 28.0711 12.8771C28.0711 14.1675 28.2962 15.3092 28.7499 16.3817C29.2035 17.4543 29.8234 18.3918 30.613 19.191C31.3991 19.9902 32.3375 20.6026 33.4249 21.0351C34.5123 21.4641 35.6863 21.6786 36.9503 21.6786H36.9537Z" fill="white"/>
<path id="Vector_2" d="M55.3596 25.4013V0.356445H60.0138V21.4642H73.1213V25.3979H55.3596V25.4013Z" fill="white"/>
<path id="Vector_3" d="M76.8094 25.4013V0.356445H81.4637V21.4642H94.5712V25.3979H76.8094V25.4013Z" fill="white"/>
<path id="Vector_4" d="M97.397 25.4013L108.676 0.356445H113.261L124.575 25.3979H119.668L109.999 2.82322H111.862L102.159 25.3979H97.397V25.4013ZM102.588 19.6063L103.876 15.9563H117.375L118.629 19.6063H102.588Z" fill="white"/>
<path id="Vector_5" d="M127.761 25.4013V0.356445H139.542C142.527 0.356445 144.806 0.948056 146.381 2.12782C147.957 3.30758 148.743 4.88867 148.743 6.86763C148.743 8.20308 148.431 9.34132 147.811 10.2824C147.192 11.2234 146.36 11.9534 145.321 12.4654C144.283 12.9775 143.154 13.2335 141.938 13.2335L142.582 11.9465C143.992 11.9465 145.256 12.2025 146.378 12.7145C147.5 13.2266 148.383 13.9739 149.027 14.9495C149.671 15.9286 149.993 17.143 149.993 18.5995C149.993 20.7445 149.176 22.4156 147.541 23.6092C145.907 24.8028 143.476 25.3979 140.255 25.3979H127.757L127.761 25.4013ZM132.415 21.7513H139.971C141.689 21.7513 143.015 21.4642 143.947 20.8933C144.878 20.3225 145.342 19.4022 145.342 18.1394C145.342 16.8766 144.878 15.9874 143.947 15.4027C143.015 14.8181 141.692 14.5274 139.971 14.5274H132.058V10.9155H139.005C140.605 10.9155 141.845 10.6283 142.728 10.0575C143.611 9.48663 144.054 8.62516 144.054 7.48C144.054 6.33483 143.611 5.44223 142.728 4.86791C141.845 4.29706 140.601 4.0099 139.005 4.0099H132.415V21.7548V21.7513Z" fill="white"/>
<g id="Group">
<path id="Vector_6" d="M14.5273 14.9946H8.69214L17.4743 25.4015H22.9528L14.5273 14.9946Z" fill="white"/>
<path id="Vector_7" d="M4.65428 0.356445H0V11.4172H4.65428V0.356445Z" fill="white"/>
<path id="Vector_8" d="M11.8504 11.4172L22.274 0.356445H17.0103L6.3754 11.4172H11.8504Z" fill="white"/>
<path id="Vector_9" d="M8.55708 14.9946H0V25.4015H4.65428V18.9525L8.55708 14.9946Z" fill="white"/>
</g>
</g>
<defs>
<clipPath id="clip0_2184_2129">
<rect width="150" height="25.7576" fill="white"/>
</clipPath>
</defs>
</svg>
